<svg
        width="22"
        height="21"
        viewBox="0 0 22 21"
        fill="none"
        xmlns="http://www.w3.org/2000/svg"
      >
        <g clip-path="url(#clip0_60_401)">
          <path
            fill-rule="evenodd"
            clip-rule="evenodd"
            d="M11 -5.81741e-05C4.92433 -5.81741e-05 0 3.88889 0 8.69244C0 11.6791 1.90484 14.3111 4.80517 15.8728L3.58295 20.4338C3.56012 20.5239 3.56483 20.619 3.59648 20.7063C3.62813 20.7936 3.68519 20.869 3.76005 20.9225C3.83491 20.9759 3.92401 21.0048 4.01542 21.0053C4.10684 21.0058 4.19624 20.9779 4.27167 20.9253L9.62134 17.3164C10.0723 17.36 10.5313 17.3849 10.9982 17.3849C17.0732 17.3849 21.9982 13.496 21.9982 8.69244C21.9982 3.88889 17.0732 -5.81741e-05 10.9982 -5.81741e-05"
            fill="#0D0D0D"
          />
        </g>
        <defs>
          <clipPath id="clip0_60_401">
            <rect width="22" height="21" fill="white" />
          </clipPath>
        </defs>
      </svg>