<svg width="19" height="11" viewBox="0 0 19 11" fill="none" xmlns="http://www.w3.org/2000/svg">
<rect width="19" height="11" rx="2" fill="#DCF235"/>
<path d="M4.54395 1.92969L6.22363 6.04102H6.31152L7.99121 1.92969H10.3057V9H8.48926V4.83984H8.43066L6.81934 8.95117H5.70605L4.10449 4.81055H4.0459V9H2.22949V1.92969H4.54395ZM11.2627 1.92969H14.2705C14.7946 1.92969 15.2536 2.02572 15.6475 2.21777C16.0446 2.40983 16.3506 2.68652 16.5654 3.04785C16.7803 3.40592 16.8877 3.83073 16.8877 4.32227C16.8877 4.80404 16.7819 5.21745 16.5703 5.5625C16.362 5.9043 16.0641 6.16634 15.6768 6.34863L17.1221 9H15.1006L13.8457 6.64648H13.1182V9H11.2627V1.92969ZM13.8408 5.19141C14.5798 5.19141 14.9476 4.90169 14.9443 4.32227C14.9476 4.01628 14.8532 3.79004 14.6611 3.64355C14.4723 3.49382 14.1989 3.41732 13.8408 3.41406H13.1182V5.19141H13.8408Z" fill="#1D1D1D"/>
</svg>
