<svg xmlns="http://www.w3.org/2000/svg" viewBox="0 0 289.27 293.99"><defs><style>.cls-1{fill:#d7d7d7;}.cls-2{fill:#dcf235;}</style></defs><g id="레이어_2" data-name="레이어 2"><g id="레이어_2-2" data-name="레이어 2"><path class="cls-1" d="M263.62,6.86l4.73,3.54c21.27,16,27,43.93,14,68-11.71,21.7-39.38,31.7-63.37,22.91A52.26,52.26,0,0,1,251.4,2a10.17,10.17,0,0,0,1.92.2Z"/><path class="cls-1" d="M60.51,116.71c1.38,13.67,1.84,15,9.5,27.4-4.86-.42-9.44-.88-14-1.19a7.93,7.93,0,0,0-3.83.5c-10.1,4.88-19.72,10.52-27.7,18.55A39.3,39.3,0,0,0,19,168.6c-6.36,10.07-1.55,20.78,10.54,23.85,8.77,2.22,17.6,1.72,26.34.25a187.43,187.43,0,0,0,19.36-4.54c18.56-5.22,37.31-8.61,56.64-5.64,11.81,1.82,22.18,6.4,29.88,16.14,10.19,12.87,10.92,32.33,1.8,46-8.74,13.14-21.13,21.82-34.64,29.16-16,8.71-33.06,14.92-50.63,19.71-5.24,1.43-9.43-.64-10.68-5.08-1.32-4.67,1.08-8.59,6.35-10.28,1.58-.51,3.2-.89,4.79-1.36,17.68-5.25,34.72-12,50.47-21.72,7.56-4.66,14.61-10,19.71-17.46,10-14.67,4.78-31.1-11.91-37.35-7.49-2.81-15.34-3.26-23.21-2.82a147.14,147.14,0,0,0-34.21,6.16c-15.88,4.79-32,8-48.7,5.37C18,207,7.46,201.21,2.24,188.33-2,177.84.08,168.08,6.14,159.06c7-10.41,16.82-17.83,27.55-23.94C43,129.82,52.75,125.28,60.51,116.71Z"/><path class="cls-1" d="M176.66,54.67c1.3,18.5,8.85,33.35,23.06,45.11-1.07.45-1.8.82-2.57,1.08L85,138.15c-6.87,2.29-13.74-.16-17.25-6.15a14.46,14.46,0,0,1,2.76-18.17,28.78,28.78,0,0,1,5.41-3.8q49.23-27.18,98.52-54.28C175,55.44,175.62,55.18,176.66,54.67Z"/><path class="cls-2" d="M263.62,6.86l4.73,3.54c21.27,16,27,43.93,14,68-11.71,21.7-39.38,31.7-63.37,22.91A52.26,52.26,0,0,1,251.4,2a10.17,10.17,0,0,0,1.92.2Z"/><path class="cls-2" d="M60.51,116.71c1.38,13.67,1.84,15,9.5,27.4-4.86-.42-9.44-.88-14-1.19a7.93,7.93,0,0,0-3.83.5c-10.1,4.88-19.72,10.52-27.7,18.55A39.3,39.3,0,0,0,19,168.6c-6.36,10.07-1.55,20.78,10.54,23.85,8.77,2.22,17.6,1.72,26.34.25a187.43,187.43,0,0,0,19.36-4.54c18.56-5.22,37.31-8.61,56.64-5.64,11.81,1.82,22.18,6.4,29.88,16.14,10.19,12.87,10.92,32.33,1.8,46-8.74,13.14-21.13,21.82-34.64,29.16-16,8.71-33.06,14.92-50.63,19.71-5.24,1.43-9.43-.64-10.68-5.08-1.32-4.67,1.08-8.59,6.35-10.28,1.58-.51,3.2-.89,4.79-1.36,17.68-5.25,34.72-12,50.47-21.72,7.56-4.66,14.61-10,19.71-17.46,10-14.67,4.78-31.1-11.91-37.35-7.49-2.81-15.34-3.26-23.21-2.82a147.14,147.14,0,0,0-34.21,6.16c-15.88,4.79-32,8-48.7,5.37C18,207,7.46,201.21,2.24,188.33-2,177.84.08,168.08,6.14,159.06c7-10.41,16.82-17.83,27.55-23.94C43,129.82,52.75,125.28,60.51,116.71Z"/><path class="cls-2" d="M176.66,54.67c1.3,18.5,8.85,33.35,23.06,45.11-1.07.45-1.8.82-2.57,1.08L85,138.15c-6.87,2.29-13.74-.16-17.25-6.15a14.46,14.46,0,0,1,2.76-18.17,28.78,28.78,0,0,1,5.41-3.8q49.23-27.18,98.52-54.28C175,55.44,175.62,55.18,176.66,54.67Z"/></g></g></svg>