<svg width="20" height="12" viewBox="0 0 20 12" fill="none" xmlns="http://www.w3.org/2000/svg">
<rect width="20" height="12" rx="2" fill="#FF4A00"/>
<path d="M4.55566 2.42969H10.6494V3.93359H8.52051V9.5H6.68457V3.93359H4.55566V2.42969ZM15.249 2.42969V7.2832C15.2458 7.73893 15.1318 8.14258 14.9072 8.49414C14.6826 8.84245 14.3701 9.11426 13.9697 9.30957C13.5693 9.50163 13.1136 9.59766 12.6025 9.59766C12.137 9.59766 11.7188 9.51628 11.3477 9.35352C10.9798 9.19076 10.6885 8.9401 10.4736 8.60156C10.262 8.25977 10.1579 7.83333 10.1611 7.32227H12.0166C12.0264 7.58919 12.0898 7.79264 12.207 7.93262C12.3275 8.07259 12.4951 8.14258 12.71 8.14258C12.9346 8.14258 13.1071 8.07096 13.2275 7.92773C13.348 7.78125 13.4098 7.56641 13.4131 7.2832V2.42969H15.249Z" fill="#FAFAFA"/>
</svg>
