<svg xmlns="http://www.w3.org/2000/svg" viewBox="0 0 357.98 60.28"><defs><style>.cls-1{fill:#fafafa;}</style></defs><g id="레이어_2" data-name="레이어 2"><g id="레이어_2-2" data-name="레이어 2"><path class="cls-1" d="M0,31.42C0,14.17,13.85,0,32.09,0,41,0,48.73,3.17,54.3,8.89l-7.24,6.86a5.18,5.18,0,0,1-6.61.53,24.39,24.39,0,0,0-8.92-2.11c-8.84,0-16,6.78-16,15.22a16.54,16.54,0,0,0,16.56,16.8A21.58,21.58,0,0,0,40.45,44a5.18,5.18,0,0,1,6.61.53l7.24,6.86c-5.57,5.8-13.85,8.89-23.25,8.89C14.33,60.28,0,47.17,0,31.42Z"/><path class="cls-1" d="M116,30.14c0,16.65-14.25,30.14-31.85,30.14S52.26,46.79,52.26,30.14,66.52,0,84.11,0,116,13.49,116,30.14Zm-15.21,0c0-8.67-7.48-15.75-16.64-15.75S67.47,21.47,67.47,30.14s7.41,15.75,16.64,15.75S100.75,38.88,100.75,30.14Z"/><path class="cls-1" d="M120,1.06h12.35a5.57,5.57,0,0,1,4,1.75l28.06,35.4V1.06h9.19A5.2,5.2,0,0,1,179,6.15V59.22H163.42l-28.9-36.35V59.22H120Z"/><path class="cls-1" d="M246.22,30.14c0,16.65-14.25,30.14-31.85,30.14s-31.85-13.49-31.85-30.14S196.77,0,214.37,0,246.22,13.49,246.22,30.14Zm-15.21,0c0-8.67-7.48-15.75-16.64-15.75s-16.64,7.08-16.64,15.75,7.4,15.75,16.64,15.75S231,38.88,231,30.14Z"/><path class="cls-1" d="M251,33.5a5.39,5.39,0,0,1,5.45-5.36h16.94a7.33,7.33,0,0,0,7.2-7,7.23,7.23,0,0,0-7.2-7H251V.14h23.45a22.57,22.57,0,0,1,20.45,14.33,19.85,19.85,0,0,1,0,14.34,22.51,22.51,0,0,1-20.77,14.33H266v17H251Z"/><path class="cls-1" d="M301,.14h9.46A5.37,5.37,0,0,1,316,5.35V46.14h22v14H301Z"/><path class="cls-1" d="M343,.14h9.5A5.39,5.39,0,0,1,358,5.39V60.14H343Z"/></g></g></svg>